<svg id="Layer_1" data-name="Layer 1" xmlns="http://www.w3.org/2000/svg" viewBox="0 0 477.27589 112.03968">
    <defs>
        <style>.cls-1{fill:#394da0;}.cls-2{fill:#6d6e70;}.cls-3{fill:#929497;}.cls-4{fill:#231f20;}.cls-5{fill:#8bc53f;}.cls-5,.cls-6{fill-rule:evenodd;}.cls-6{fill:#1c3e93;}.cls-7{fill:#a8ce38;}</style>
    </defs>
    <title>NEW GLOBE</title>
    <path class="cls-1" d="M262.2512,889.3814a4.13762,4.13762,0,0,1-4.21579-4.0459v-7.5469a4.13762,4.13762,0,0,1,4.21579-4.0459h7.853a4.16773,4.16773,0,0,1,4.2495,4.0459v7.5469a4.16773,4.16773,0,0,1-4.2495,4.0459Zm7.6831-12.919h-7.4795a1.54019,1.54019,0,0,0-1.5976,1.5303l-.0342,7.1729a1.56956,1.56956,0,0,0,1.6318,1.5302h7.4795a1.53959,1.53959,0,0,0,1.5977-1.5302v-7.1729A1.54022,1.54022,0,0,0,269.9343,876.4624Z" transform="translate(-157.92891 -783.83482)"/>
    <path class="cls-1" d="M280.9846,895.8745h-2.8218v-22.166h11.9668a4.17251,4.17251,0,0,1,4.21581,4.1143v11.6601l-13.36081-.0332Zm8.9414-19.4462-8.9414.0341V886.73h10.5391v-8.7373A1.56823,1.56823,0,0,0,289.926,876.4283Z" transform="translate(-157.92891 -783.83482)"/>
    <path class="cls-1" d="M314.4392,882.0376H300.8406v3.128a1.56951,1.56951,0,0,0,1.63181,1.5302H314.3035v2.6856H302.2683a4.1375,4.1375,0,0,1-4.2153-4.0459v-7.5469a4.1375,4.1375,0,0,1,4.2153-4.0459h7.9214a4.16779,4.16779,0,0,1,4.2495,4.0459v4.249Zm-9.043-5.5752h-2.92379a1.54023,1.54023,0,0,0-1.59771,1.5303v1.3936h10.74271v-1.3936a1.5402,1.5402,0,0,0-1.59761-1.5303Z" transform="translate(-157.92891 -783.83482)"/>
    <path class="cls-1" d="M331.7458,877.9585a1.56753,1.56753,0,0,0-1.5981-1.5635l-8.9409.0333V889.313H318.385V873.7085h11.9668a4.13763,4.13763,0,0,1,4.2158,4.0459V889.313h-2.8218Z" transform="translate(-157.92891 -783.83482)"/>
    <path class="cls-1" d="M339.5329,891.4556l.8497-4.7256h2.7197l-1.35989,4.7256Z" transform="translate(-157.92891 -783.83482)"/>
    <path class="cls-2" d="M391.2097,882.0376H377.6111v3.128a1.5695,1.5695,0,0,0,1.6318,1.5302H391.074v2.6856H379.0388a4.1375,4.1375,0,0,1-4.2153-4.0459v-7.5469a4.1375,4.1375,0,0,1,4.2153-4.0459h7.9214a4.16779,4.16779,0,0,1,4.2495,4.0459v4.249Zm-9.043-5.5752h-2.9238a1.54013,1.54013,0,0,0-1.5976,1.5303v1.3936h10.7426v-1.3936a1.54019,1.54019,0,0,0-1.5976-1.5303Z" transform="translate(-157.92891 -783.83482)"/>
    <path class="cls-2" d="M408.5163,877.9585a1.568,1.568,0,0,0-1.5986-1.5635l-8.9404.0333V889.313h-2.8218V873.7085h11.9673a4.13706,4.13706,0,0,1,4.2148,4.0459V889.313h-2.8213Z" transform="translate(-157.92891 -783.83482)"/>
    <path class="cls-2" d="M418.8533,889.2798H416.031V867.2154h2.8223v6.4257h3.2295v2.7198h-3.2295Z" transform="translate(-157.92891 -783.83482)"/>
    <path class="cls-2" d="M441.5642,882.0376H427.9646v3.128a1.5704,1.5704,0,0,0,1.63281,1.5302H441.4275v2.6856H429.3923a4.13643,4.13643,0,0,1-4.2148-4.0459v-7.5469a4.13643,4.13643,0,0,1,4.2148-4.0459h7.9219a4.16888,4.16888,0,0,1,4.25,4.0459v4.249Zm-9.0449-5.5752h-2.92189a1.54187,1.54187,0,0,0-1.59961,1.5303v1.3936h10.7441v-1.3936a1.54019,1.54019,0,0,0-1.5976-1.5303Z" transform="translate(-157.92891 -783.83482)"/>
    <path class="cls-2" d="M448.5349,877.9585v11.3213h-2.8223V877.7544a4.13819,4.13819,0,0,1,4.21681-4.0459h4.24809v2.6865h-4.0449A1.56718,1.56718,0,0,0,448.5349,877.9585Z" transform="translate(-157.92891 -783.83482)"/>
    <path class="cls-2" d="M458.97241,895.8745H456.1501v-22.166h11.9668a4.173,4.173,0,0,1,4.2168,4.1143v11.6601l-13.36129-.0332Zm8.94139-19.4462-8.94139.0341V886.73H469.5115v-8.7373A1.56792,1.56792,0,0,0,467.9138,876.4283Z" transform="translate(-157.92891 -783.83482)"/>
    <path class="cls-2" d="M479.406,877.9585v11.3213h-2.8223V877.7544a4.13819,4.13819,0,0,1,4.2168-4.0459h4.2481v2.6865h-4.0449A1.56718,1.56718,0,0,0,479.406,877.9585Z" transform="translate(-157.92891 -783.83482)"/>
    <path class="cls-2" d="M487.97441,867.2495h2.82029v2.7539h-2.82029Zm0,6.3916h2.82029v15.6387h-2.82029Z" transform="translate(-157.92891 -783.83482)"/>
    <path class="cls-2" d="M497.0857,889.3814l-.0332-2.7198,11.5586.0342a1.30778,1.30778,0,0,0,1.35931-1.292v-1.122a1.29472,1.29472,0,0,0-1.35931-1.3262h-8.2285a4.13755,4.13755,0,0,1-4.2149-4.0449v-1.1221a4.16008,4.16008,0,0,1,4.2149-4.0459h11.5253l.0352,2.7197-11.6269-.0341a1.36439,1.36439,0,0,0-1.3614,1.3603v1.0879a1.30833,1.30833,0,0,0,1.3614,1.292h8.2265a4.15867,4.15867,0,0,1,4.2149,4.0449v1.1221a4.13651,4.13651,0,0,1-4.2149,4.0459Z" transform="translate(-157.92891 -783.83482)"/>
    <path class="cls-2" d="M532.9216,882.0376H519.322v3.128a1.57045,1.57045,0,0,0,1.6328,1.5302h11.8301v2.6856H520.7497a4.13643,4.13643,0,0,1-4.2148-4.0459v-7.5469a4.13643,4.13643,0,0,1,4.2148-4.0459h7.9219a4.16881,4.16881,0,0,1,4.25,4.0459v4.249Zm-9.0449-5.5752h-2.9219a1.54193,1.54193,0,0,0-1.5996,1.5303v1.3936h10.74421v-1.3936a1.54023,1.54023,0,0,0-1.59771-1.5303Z" transform="translate(-157.92891 -783.83482)"/>
    <path class="cls-2" d="M537.4431,891.4556l.8496-4.7256h2.72071l-1.35941,4.7256Z" transform="translate(-157.92891 -783.83482)"/>
    <path class="cls-3" d="M577.154,889.3814a4.13741,4.13741,0,0,1-4.2148-4.0459V873.84519h2.7871l.0332,11.28621a1.54074,1.54074,0,0,0,1.5977,1.5302h4.9648V873.8111h2.8223v12.8505l6.5937-.0341V873.84519h2.8223V889.3814Z" transform="translate(-157.92891 -783.83482)"/>
    <path class="cls-3" d="M614.4841,882.0376H600.8865v3.128a1.56868,1.56868,0,0,0,1.6308,1.5302h11.83011v2.6856H602.3142a4.13818,4.13818,0,0,1-4.21679-4.0459v-7.5469a4.13818,4.13818,0,0,1,4.21679-4.0459h7.9199a4.16759,4.16759,0,0,1,4.25,4.0459v4.249Zm-9.0429-5.5752h-2.9239a1.5402,1.5402,0,0,0-1.5976,1.5303v1.3936h10.7422v-1.3936a1.54022,1.54022,0,0,0-1.5977-1.5303Z" transform="translate(-157.92891 -783.83482)"/>
    <path class="cls-3" d="M618.2263,867.2495h2.82229v6.3233h9.0761a4.196,4.196,0,0,1,4.25,4.0801v11.6269H618.2263Zm11.72849,9.043-8.9062-.0342v10.2676h10.5039V877.857A1.56738,1.56738,0,0,0,629.95479,876.2925Z" transform="translate(-157.92891 -783.83482)"/>
    <path class="cls-4" d="M266.6682,854.78319h-6.3159V805.3975h6.3159v14.3818h7.229v6.08789h-7.229Z" transform="translate(-157.92891 -783.83482)"/>
    <path class="cls-4" d="M313.9997,838.57519H283.5618v7.001A3.51309,3.51309,0,0,0,287.2141,849H313.696v6.0117H286.7576a9.26114,9.26114,0,0,1-9.4356-9.0556V829.0635a9.26116,9.26116,0,0,1,9.4356-9.0557H304.488a9.3283,9.3283,0,0,1,9.5117,9.0557v9.51169ZM293.7585,826.0957h-6.5444a3.44631,3.44631,0,0,0-3.5762,3.4239v3.1201h24.0464v-3.1201a3.44666,3.44666,0,0,0-3.5766-3.4239Z" transform="translate(-157.92891 -783.83482)"/>
    <path class="cls-4" d="M328.0027,855.0117a9.26168,9.26168,0,0,1-9.4365-9.0556V829.0635a9.26169,9.26169,0,0,1,9.4365-9.0557h17.5781c5.1738,0,9.7402,4.0332,9.5117,9.0557l-.0762,2.8916h-6.2402v-2.4355a3.446,3.446,0,0,0-3.5762-3.4239H328.4587a3.44592,3.44592,0,0,0-3.5761,3.4239l-.07619,16.05659A3.51277,3.51277,0,0,0,328.4587,849h16.7412a3.446,3.446,0,0,0,3.5762-3.42381V842.6846h6.2402l.0762,3.2715c.2285,5.0224-4.3379,9.0556-9.5117,9.0556Z" transform="translate(-157.92891 -783.83482)"/>
    <path class="cls-4" d="M388.6511,829.2149a3.50858,3.50858,0,0,0-3.5771-3.5l-19.93659-.0762v29.0684l-6.31641.07609V805.4737h6.31641V819.627H385.4548a9.39222,9.39222,0,0,1,9.5117,9.1318v26.02439l-6.4677-.07609Z" transform="translate(-157.92891 -783.83482)"/>
    <path class="cls-4" d="M429.7429,829.4434a3.50842,3.50842,0,0,0-3.5762-3.5l-20.0136.0762v28.8398h-6.3155V819.9317h26.7852a9.26079,9.26079,0,0,1,9.4355,9.0556v25.8721h-6.3154Z" transform="translate(-157.92891 -783.83482)"/>
    <path class="cls-4" d="M451.43041,855.0117a9.26143,9.26143,0,0,1-9.43551-9.0556V829.0635a9.26145,9.26145,0,0,1,9.43551-9.0557H469.0085a9.32919,9.32919,0,0,1,9.5127,9.0557v16.8926a9.32917,9.32917,0,0,1-9.5127,9.0556Zm17.19829-28.916H451.88741a3.446,3.446,0,0,0-3.57611,3.4239l-.0762,16.05659A3.51284,3.51284,0,0,0,451.88741,849H468.6287a3.446,3.446,0,0,0,3.5761-3.42381V829.5196A3.446,3.446,0,0,0,468.6287,826.0957Z" transform="translate(-157.92891 -783.83482)"/>
    <path class="cls-4" d="M489.8601,865.3413h-6.3164V819.9317h26.7861a9.33853,9.33853,0,0,1,9.43561,9.208v26.1006l-29.90531-.0762Zm20.0127-39.3217-20.0127.0761v22.98049h23.5898V829.5196A3.50857,3.50857,0,0,0,509.8728,826.0196Z" transform="translate(-157.92891 -783.83482)"/>
    <path class="cls-4" d="M534.3767,855.0117a9.26143,9.26143,0,0,1-9.4355-9.0556V829.0635a9.26145,9.26145,0,0,1,9.4355-9.0557h17.5781a9.3283,9.3283,0,0,1,9.5117,9.0557v16.8926a9.32828,9.32828,0,0,1-9.5117,9.0556Zm17.1982-28.916H534.8337a3.44592,3.44592,0,0,0-3.5761,3.4239l-.07619,16.05659A3.51277,3.51277,0,0,0,534.8337,849h16.7412a3.446,3.446,0,0,0,3.5762-3.42381V829.5196A3.446,3.446,0,0,0,551.5749,826.0957Z" transform="translate(-157.92891 -783.83482)"/>
    <path class="cls-4" d="M566.8699,845.8799V805.5498h6.3164V845.5a3.446,3.446,0,0,0,3.57611,3.4239h3.65239v6.164h-4.10839A9.33937,9.33937,0,0,1,566.8699,845.8799Z" transform="translate(-157.92891 -783.83482)"/>
    <path class="cls-4" d="M586.5037,819.7793h6.3164v35.00389h-6.3164Z" transform="translate(-157.92891 -783.83482)"/>
    <path class="cls-4" d="M600.1247,855.0117l-.0761-6.0878,25.873.0761a2.9269,2.9269,0,0,0,3.044-2.8916v-2.5107a2.89845,2.89845,0,0,0-3.044-2.9678h-18.415a9.2617,9.2617,0,0,1-9.4365-9.05571V829.0635a9.31163,9.31163,0,0,1,9.4365-9.0557h25.79589l.0762,6.0879-26.02449-.0761a3.052,3.052,0,0,0-3.0439,3.0439v2.4346a2.92749,2.92749,0,0,0,3.0439,2.8916h18.41509a9.31073,9.31073,0,0,1,9.4355,9.0556v2.5108a9.26079,9.26079,0,0,1-9.4355,9.0556Z" transform="translate(-157.92891 -783.83482)"/>
    <path class="cls-5" d="M575.9431,802.291s11.3369,14.0464,29.36331,11.4878a15.60337,15.60337,0,0,1-1.59081,2.5733c-7.07719,1.7168-19.1348,2.0625-27.4229-12.2315Z" transform="translate(-157.92891 -783.83482)"/>
    <path class="cls-6" d="M608.4167,805.5699c-17.4638,8.0205-32.9599-8.0401-32.9599-8.0401l.1035,1.4815c12.4473,18.70989,27.7139,11.5107,32.2373,8.8203Z" transform="translate(-157.92891 -783.83482)"/>
    <path class="cls-7" d="M230.75416,819.14018a50.963,50.963,0,0,1-10.13611-1.91388c14.70313,8.686,27.3725,8.2605,29.39142,8.14539-.103-1.0185-.25042-2.02326-.41845-3.02118-3.24256-.89508-6.32727-1.90387-9.2511-3.0058C240.15083,819.27348,235.69166,819.45268,230.75416,819.14018Z" transform="translate(-157.92891 -783.83482)"/>
    <path class="cls-7" d="M201.26741,798.52513c12.80627,9.61535,37.68933,13.09765,37.68933,13.09765-27.963-8.86084-41.01093-22.71453-43.90253-26.9068-1.53686.29883-3.4566.78461-5.12628,1.28156-.47137.15009-.93829.30994-1.403.47467C192.04274,791.35453,197.30439,795.54954,201.26741,798.52513Z" transform="translate(-157.92891 -783.83482)"/>
    <path class="cls-7" d="M166.02,803.6472q-.97568,1.39837-1.85077,2.86822c11.32074,13.76636,24.92664,23.52014,38.548,28.05487a118.63254,118.63254,0,0,0,46.46978,5.35907c.174-.80261.32935-1.61193.46106-2.4295a157.84012,157.84012,0,0,1-45.39953-8.65021C182.81715,821.3264,168.27858,806.41081,166.02,803.6472Z" transform="translate(-157.92891 -783.83482)"/>
    <path class="cls-7" d="M194.0171,846.44139c6.3675,1.6626,22.85193,3.54553,30.0625,3.31592,7.1637-.22809,6.66718-.491,6.66718-.491-12.7793-.50934-25.80475-2.05884-35.1377-5.33338-21.914-7.68866-34.12536-20.41363-36.87481-23.5227q-.33334,1.56637-.55665,3.17108C165.69874,833.587,179.07918,842.54087,194.0171,846.44139Z" transform="translate(-157.92891 -783.83482)"/>
    <path class="cls-7" d="M178.79146,868.88548a46.16172,46.16172,0,0,0,5.10131,2.88879c.09723.04621.19342.08771.29047.13306q.78735.37344,1.59015.71893a48.48176,48.48176,0,0,0,11.74194,3.264c.98517.13739,1.981.24121,2.98444.3175.0805.006.16083.01276.24145.01838,1.01361.07183,2.03522.11486,3.06623.11975.10254-.00263.15716-.00513.15716-.00513.191.00183.37976-.00146.56916-.00317.59667-.007,1.19287-.01575,1.78393-.04511.03619-.00183.07214-.004.10822-.006.62878-.03278,1.25238-.0849,1.87426-.14252a49.14345,49.14345,0,0,0,15.84906-4.41137c1.06446-.51648,2.10071-1.08051,3.11768-1.6742C207.248,873.24968,195.63844,873.21592,178.79146,868.88548Z" transform="translate(-157.92891 -783.83482)"/>
    <path class="cls-1" d="M248.098,816.12278c-.30286-.95782-.64374-1.89807-1.00611-2.82775-40.60272.07946-59.96167-21.533-62.84741-25.05866-.56964.2666-1.12659.55469-1.68433.84137-.22223.11627-.44891.225-.669.34485C208.9709,823.89421,244.02009,817.05931,248.098,816.12278Z" transform="translate(-157.92891 -783.83482)"/>
    <path class="cls-1" d="M250.23964,829.79289c-.0058-.939-.04547-1.86951-.10645-2.7945-47.23913,1.82727-76.38727-24.88708-80.02405-28.41717q-.786.84466-1.53045,1.727C196.21937,835.4514,245.91047,830.31443,250.23964,829.79289Z" transform="translate(-157.92891 -783.83482)"/>
    <path class="cls-1" d="M160.39705,814.54277q-.36859,1.03353-.69007,2.08844c33.52191,36.96948,84.28327,28.45971,88.288,27.72009q.49338-1.52316.88452-3.08978C201.25142,847.5999,164.11079,817.657,160.39705,814.54277Z" transform="translate(-157.92891 -783.83482)"/>
    <path class="cls-1" d="M201.0168,850.84965a107.26692,107.26692,0,0,1-43.08789-16.34289c.079.83276.17675,1.65985.29925,2.47912,33.51911,29.73071,74.42554,18.49542,86.98078,14.08612q.91763-1.79883,1.6806-3.68414C230.96748,851.71055,214.31971,852.83751,201.0168,850.84965Z" transform="translate(-157.92891 -783.83482)"/>
    <path class="cls-1" d="M165.657,856.01188a46.47513,46.47513,0,0,0,4.88391,6.0293c24.99432,12.21246,48.51672,7.967,63.67456,3.04779a46.53812,46.53812,0,0,0,5.71252-5.88733C209.10347,868.43962,180.19673,861.1533,165.657,856.01188Z" transform="translate(-157.92891 -783.83482)"/>
    <path class="cls-1" d="M220.32942,787.22667c-.34076.54919,3.19238,2.9378,7.32745,5.48675,4.14228,2.54688,7.32093,4.29382,7.66266,3.74268.07654-.12494-.02948-.35419-.27466-.65705a46.45968,46.45968,0,0,0-4.94891-3.90338q-.79284-.52239-1.6571-1.0567c-1.1767-.72424-2.30866-1.36975-3.3393-1.91528-.93365-.48-1.88171-.93555-2.85089-1.3526C221.17958,787.14518,220.47029,786.998,220.32942,787.22667Z" transform="translate(-157.92891 -783.83482)"/>
    <path class="cls-7" d="M227.65883,803.11564a57.24937,57.24937,0,0,0,18.55462,8.08045,46.14468,46.14468,0,0,0-3.35388-6.17743c-1.15216-.00623-3.6831-.05695-6.42529-.35651A88.1379,88.1379,0,0,1,227.65883,803.11564Z" transform="translate(-157.92891 -783.83482)"/>
    <path class="cls-1" d="M196.21248,784.51036c16.1947,15.21106,34.11224,18.89184,45.65466,19.03369a46.47558,46.47558,0,0,0-4.58667-5.56165c-16.50366-2.44421-28.53125-8.56927-36.24378-14.0299A46.87484,46.87484,0,0,0,196.21248,784.51036Z" transform="translate(-157.92891 -783.83482)"/>
    <path class="cls-7" d="M223.15529,859.83787c7.07763-1.1308,6.55188-1.32892,6.55188-1.32892-12.74134,1.10834-25.85822,1.21588-35.52991-.85406a94.77741,94.77741,0,0,1-34.69257-14.89935,45.94375,45.94375,0,0,0,1.85486,5.31353,70.89026,70.89026,0,0,0,31.5752,12.27521C199.44117,861.18956,216.03145,860.97606,223.15529,859.83787Z" transform="translate(-157.92891 -783.83482)"/>
    <path class="cls-7" d="M217.99232,820.23558c-25.32922-10.84705-36.17193-27.00318-37.72375-29.88007a46.3465,46.3465,0,0,0-3.90656,2.60858C184.68245,812.48314,217.99232,820.23558,217.99232,820.23558Z" transform="translate(-157.92891 -783.83482)"/>
    <path class="cls-7" d="M215.59871,785.32267c-.91474-.24676-1.78833-.44983-2.62281-.62341a46.4485,46.4485,0,0,0-8.32837-.86444,79.69578,79.69578,0,0,0,21.908,10.48932C218.74305,790.82414,215.59871,785.32267,215.59871,785.32267Z" transform="translate(-157.92891 -783.83482)"/>
</svg>